<svg fill="#000000" stroke="none" xmlns="http://www.w3.org/2000/svg" viewBox="0 0 512 512" width="512px" height="512px">
<path d="M116,0.6c-19.3,2.9 -31.1,6.4 -45,13.4 -35.5,17.9 -59.8,49.8 -68.7,90.2 -1.7,7.8 -1.8,16.7 -1.8,151.8 0,135.1 0.1,144 1.8,151.8 11.6,52.6 49.3,90.3 101.9,101.9 7.8,1.7 16.7,1.8 151.8,1.8 135.1,-0 144,-0.1 151.8,-1.8 52.6,-11.6 90.3,-49.3 101.9,-101.9 1.7,-7.8 1.8,-16.7 1.8,-151.8 0,-135.1 -0.1,-144 -1.8,-151.8 -5.8,-26.2 -17.6,-48.3 -35.6,-66.3 -17.7,-17.6 -38.6,-29 -65.6,-35.6 -6.4,-1.5 -18.8,-1.7 -148.5,-1.9 -77.8,-0.1 -142.6,-0 -144,0.2zM387.2,87.8c7.8,3.8 14.3,10.5 18.5,19 2.8,5.7 2.8,5.8 3.1,29.4l0.4,23.8 18.9,-0 18.9,-0 0,19 0,19 -18.7,0.2 -18.8,0.3 0,19 0,19 18.8,0.3 18.7,0.2 0,19 0,19 -18.7,0.2 -18.8,0.3 0,19 0,19 18.8,0.3 18.7,0.2 0,19 0,19 -18.9,-0 -19,-0 -0.3,23.8c-0.3,23.3 -0.3,23.8 -3,29.4 -3.7,8 -10.7,15.2 -18.7,19.1l-6.6,3.2 -144,-0 -144,-0 -5.9,-3c-7.9,-4 -15.1,-11.1 -18.4,-18.2l-2.7,-5.8 0,-144.5 0,-144.5 2.9,-5.9c4.8,-9.8 13,-16.7 24.1,-20.2 3.2,-1 33.1,-1.2 146,-1.1l142,0.2 6.7,3.3z"/>
<path d="M103,256l0,134 134,-0 134,-0 0,-134 0,-134 -134,-0 -134,-0 0,134zM236.8,208.2l0.2,47.8 -48,-0 -48,-0 0,-47.3c0,-26.1 0.3,-47.7 0.7,-48 0.3,-0.4 21.8,-0.6 47.7,-0.5l47.1,0.3 0.3,47.7zM332,189l0,29 -38,-0 -38,-0 0,-29 0,-29 38,-0 38,-0 0,29zM332,294.5l0,57.5 -38,-0 -38,-0 0,-57.5 0,-57.5 38,-0 38,-0 0,57.5zM236.5,313.5l0,38 -47.5,-0 -47.5,-0 -0.3,-37c-0.1,-20.3 0,-37.6 0.3,-38.3 0.3,-1 10.4,-1.2 47.7,-1l47.3,0.3 0,38z"/>
</svg>
